<svg width="37" height="31" viewBox="0 0 37 31" fill="none" xmlns="http://www.w3.org/2000/svg">
<path d="M28.5875 30.2575C28.4256 30.4197 28.2333 30.5484 28.0216 30.6363C27.8099 30.7241 27.5829 30.7693 27.3537 30.7693C27.1246 30.7693 26.8976 30.7241 26.6859 30.6363C26.4742 30.5484 26.2819 30.4197 26.12 30.2575L22.41 26.5475C22.248 26.3855 22.1195 26.1931 22.0318 25.9814C21.9441 25.7698 21.899 25.5429 21.899 25.3138C21.899 25.0846 21.9441 24.8577 22.0318 24.646C22.1195 24.4344 22.248 24.242 22.41 24.08C22.7372 23.7528 23.181 23.569 23.6438 23.569C23.8729 23.569 24.0998 23.6141 24.3115 23.7018C24.5231 23.7895 24.7155 23.918 24.8775 24.08L27.345 26.5475L33.54 20.3525C33.702 20.1905 33.8944 20.062 34.106 19.9743C34.3177 19.8866 34.5446 19.8415 34.7738 19.8415C35.0029 19.8415 35.2298 19.8866 35.4415 19.9743C35.6531 20.062 35.8455 20.1905 36.0075 20.3525C36.1695 20.5145 36.298 20.7069 36.3857 20.9185C36.4734 21.1302 36.5185 21.3571 36.5185 21.5862C36.5185 21.8154 36.4734 22.0423 36.3857 22.254C36.298 22.4656 36.1695 22.658 36.0075 22.82L28.5875 30.2575ZM18.14 28H4C2.075 28 0.5 26.425 0.5 24.5V3.5C0.5 1.575 2.075 0 4 0H32C33.925 0 35.5 1.575 35.5 3.5V15.19C33.6337 14.3021 31.5729 13.9013 29.5098 14.0247C27.4467 14.1482 25.4485 14.7921 23.7014 15.8963C21.9543 17.0004 20.5152 18.529 19.5183 20.3394C18.5213 22.1498 17.999 24.1832 18 26.25C18 26.845 18.0525 27.4225 18.14 28ZM17.0725 15.1725C17.6325 15.5225 18.3675 15.5225 18.9275 15.1725L31.3 7.4375C31.4755 7.33899 31.6291 7.20591 31.7517 7.04629C31.8743 6.88668 31.9631 6.70386 32.013 6.5089C32.0628 6.31394 32.0726 6.11089 32.0417 5.91204C32.0108 5.71319 31.9399 5.52267 31.8333 5.35203C31.7266 5.18138 31.5864 5.03415 31.4212 4.91924C31.256 4.80434 31.0692 4.72414 30.8721 4.68352C30.675 4.6429 30.4718 4.64269 30.2746 4.68291C30.0774 4.72313 29.8904 4.80293 29.725 4.9175L18 12.25L6.275 4.9175C6.10956 4.80293 5.9226 4.72313 5.72542 4.68291C5.52825 4.64269 5.32496 4.6429 5.12787 4.68352C4.93077 4.72414 4.74397 4.80434 4.57877 4.91924C4.41357 5.03415 4.2734 5.18138 4.16674 5.35203C4.06009 5.52267 3.98917 5.71319 3.95827 5.91204C3.92738 6.11089 3.93716 6.31394 3.98701 6.5089C4.03686 6.70386 4.12575 6.88668 4.24831 7.04629C4.37086 7.20591 4.52452 7.33899 4.7 7.4375L17.0725 15.1725Z" fill="white"/>
</svg>
