<svg width="127" height="44" viewBox="0 0 127 44" fill="none" xmlns="http://www.w3.org/2000/svg">
<rect x="113.779" y="27.7258" width="6.34023" height="6.34023" fill="#E5631A"/>
<path d="M27.5655 7.57248H32.4956L30.2419 11.9743L19.9239 32.2229L9.6059 11.9743L7.38736 7.57248H12.3175L14.5712 11.9743L19.9239 22.5036L25.3118 11.9743L27.5655 7.57248ZM51.6297 7.50205H57.1584V7.53726L47.6152 19.8977L47.087 20.5668V32.1877H42.6851V20.6372L42.0864 19.8977L32.5432 7.50205H38.0719L44.8684 16.3058L51.6297 7.50205ZM32.5432 32.2581V32.1877H32.5784L32.5432 32.2581ZM57.1584 32.2229L57.1232 32.1877H57.1584V32.2229ZM78.8087 7.53726H83.2458V32.2229L78.8087 28.8071L62.9972 16.5875V32.2229H58.5954V7.64291L62.9972 11.0235L78.8087 23.2431V7.53726ZM104.861 7.53726H109.298V32.2229L104.861 28.8071L89.0494 16.5875V32.2229H84.6475V7.64291L89.0494 11.0235L104.861 23.2431V7.53726Z" fill="#E5631A"/>
</svg>
