<svg width="20" height="20" viewBox="0 0 20 20" fill="none" xmlns="http://www.w3.org/2000/svg">
<path d="M17.6248 2.37501L16.7748 3.22501C15.5748 1.80834 12.9998 0.833344 9.99984 0.833344C6.99984 0.833344 4.42484 1.80834 3.22484 3.22501L2.37484 2.37501C2.3161 2.31742 2.24162 2.27852 2.1608 2.26319C2.07997 2.24786 1.99642 2.25681 1.92067 2.28889C1.84492 2.32097 1.78037 2.37476 1.73514 2.44347C1.68991 2.51218 1.66603 2.59275 1.66651 2.67501V5.41668C1.66651 5.65001 1.84984 5.83334 2.08318 5.83334H4.82484C5.19984 5.83334 5.38318 5.38334 5.11651 5.12501L4.10818 4.10834C4.94151 3.03334 7.19151 2.08334 9.99984 2.08334C12.8082 2.08334 15.0582 3.03334 15.8915 4.10834L14.8748 5.12501C14.8173 5.18376 14.7784 5.25823 14.763 5.33906C14.7477 5.41988 14.7566 5.50343 14.7887 5.57918C14.8208 5.65493 14.8746 5.71949 14.9433 5.76472C15.012 5.80995 15.0926 5.83383 15.1748 5.83334H17.9165C18.1498 5.83334 18.3332 5.65001 18.3332 5.41668V2.67501C18.3337 2.59275 18.3098 2.51218 18.2646 2.44347C18.2193 2.37476 18.1548 2.32097 18.079 2.28889C18.0033 2.25681 17.9197 2.24786 17.8389 2.26319C17.7581 2.27852 17.6836 2.31742 17.6248 2.37501Z" fill="#ADACB5"/>
<path d="M12.0834 10.5917C11.8501 10.475 11.6001 10.4167 11.3418 10.4167H10.8334V5.41666C10.8334 4.72499 10.2751 4.16666 9.58342 4.16666C8.89175 4.16666 8.33342 4.72499 8.33342 5.41666V14.3667L5.46675 13.7667C5.26978 13.7253 5.06473 13.7488 4.88218 13.8335C4.69963 13.9183 4.54936 14.0597 4.45378 14.2368C4.35819 14.4139 4.32242 14.6172 4.35179 14.8163C4.38116 15.0154 4.4741 15.1997 4.61675 15.3417L7.95842 18.6833C8.26675 18.9917 8.69175 19.1667 9.13342 19.1667H14.4751C15.3084 19.1667 16.0084 18.5583 16.1251 17.7333L16.6501 14.0167C16.7501 13.3083 16.3834 12.6083 15.7418 12.2917L12.0834 10.5917Z" fill="#ADACB5"/>
</svg>
